# xmcd
#
# Track frame offsets: 
#        150
#        10726
#        24940
#        38829
#        47018
#        69793
#        81379
#        92353
#        99526
#        116082
#        129259
#        143445
#        172356
#        185436
#        205046
#        218206
#        230313
#        245884
#        259989
#        278085
#
# Disc length: 3911 seconds
#
# Revision: 0
# Processed by: cddbd v1.5.2PL0 Copyright (c) Steve Scherf et al.
# Submitted via: ExactAudioCopy v0.99pb5
#
DISCID=100f4514
DTITLE=The Rolling Stones  - Promotional Album  FLAC
DYEAR=1900
DGENRE=
TTITLE0=Route 66
TTITLE1=Walking The Dog
TTITLE2=Around And Around
TTITLE3=Suzie Q
TTITLE4=Everybody Needs Somebody To Love
TTITLE5=Off The Hook
TTITLE6=I'm Free
TTITLE7=She Said Yeah
TTITLE8=Under My Thumb
TTITLE9=Stupid Girl
TTITLE10=2000 Man
TTITLE11=Sympathy For The Devil
TTITLE12=Prodigal Son
TTITLE13=Love In Vain
TTITLE14=Everybody Needs Somebody To Love
TTITLE15=Doncha Bother Me
TTITLE16=Flight 505
TTITLE17=High and Dry
TTITLE18=No Expectations
TTITLE19=Dear Doctor
EXTD=
EXTT0=
EXTT1=
EXTT2=
EXTT3=
EXTT4=
EXTT5=
EXTT6=
EXTT7=
EXTT8=
EXTT9=
EXTT10=
EXTT11=
EXTT12=
EXTT13=
EXTT14=
EXTT15=
EXTT16=
EXTT17=
EXTT18=
EXTT19=
PLAYORDER=
